<svg xmlns="http://www.w3.org/2000/svg" width="20" height="17" viewBox="0 0 20 17" fill="none">
<g clip-path="url(#clip0_162_393)">
<path d="M18.2844 6.70734H5.85865L9.36162 3.05302C10.0285 2.35736 10.0285 1.21811 9.36162 0.521043C8.69477 -0.174617 7.60271 -0.174617 6.93451 0.521043L0.500925 7.23401C0.303841 7.43961 0.167502 7.68324 0.086508 7.94376C0.0838083 7.95361 0.0797586 7.96206 0.0770588 7.97192C0.0662597 8.00994 0.0568104 8.04937 0.0487111 8.08739C0.0446614 8.10711 0.0392618 8.12682 0.0352121 8.14654C0.0284627 8.18034 0.024413 8.21413 0.0203633 8.24652C0.0163137 8.27187 0.012264 8.29581 0.0095642 8.32116C0.00551452 8.36904 0.00281474 8.41832 0.00281474 8.4662C0.00281474 8.47606 0.00146484 8.48592 0.00146484 8.49578C0.00146484 8.55633 0.00416463 8.61688 0.0109141 8.67603C0.0109141 8.67885 0.0109141 8.68166 0.0109141 8.68307C0.0271128 8.84924 0.0649098 9.014 0.125655 9.17031C0.209348 9.38577 0.333538 9.58714 0.500925 9.76176L6.93451 16.4733C7.60136 17.169 8.69342 17.169 9.36162 16.4733C10.0298 15.7777 10.0285 14.6384 9.36162 13.9414L5.8546 10.2828H18.2858C19.2293 10.2828 20.0015 9.4773 20.0015 8.49296C20.0015 7.50862 19.2293 6.70312 18.2858 6.70312L18.2844 6.70734Z" fill="white"/>
</g>
<defs>
<clipPath id="clip0_162_393">
<rect width="20" height="17" fill="white"/>
</clipPath>
</defs>
</svg>