<svg xmlns="http://www.w3.org/2000/svg" width="19" height="19" viewBox="0 0 19 19" fill="none">
<path d="M9.13788 0C6.62496 0 4.56894 2.05602 4.56894 4.56894C4.56894 6.94479 3.38102 9.09219 1.50775 10.6456C0.838 11.201 0.355142 11.92 0.13435 12.7189C-0.0127628 13.2512 0.447715 13.7068 1 13.7068H17.2758C17.828 13.7068 18.2891 13.2515 18.1452 12.7183C17.9297 11.9196 17.4539 11.2009 16.768 10.6456C14.8947 9.09219 13.7068 6.94479 13.7068 4.56894C13.7068 2.05602 11.6736 0 9.13788 0ZM7.85341 15.9913C7.30112 15.9913 6.83437 16.4599 7.07 16.9594C7.43607 17.7354 8.22694 18.2758 9.13788 18.2758C10.0488 18.2758 10.8397 17.7354 11.2058 16.9594C11.4414 16.4599 10.9746 15.9913 10.4223 15.9913H7.85341Z" fill="#979797"/>
</svg>