<svg class="option-icon" xmlns="http://www.w3.org/2000/svg" width="21" height="20" viewBox="0 0 21 20" fill="none">
  <g clip-path="url(#clip0_916_521)">
    <path d="M12.4405 13.0759C12.3506 13.1843 12.22 13.2618 12.0572 13.2744L9.15064 13.4969C8.78838 13.5251 8.49773 13.1998 8.56372 12.8421L9.09448 9.96785C9.12396 9.80731 9.21523 9.68479 9.33177 9.60734L9.32756 9.6017L16.9898 2.69986V2.10135C16.9898 0.940953 16.0519 0.00164878 14.8963 0.00164878H3.99051C1.78604 0.000240527 0 1.79154 0 4.00249V15.998C0 18.2075 1.78604 20.0002 3.99051 20.0002H14.8977C16.0547 20.0002 16.9912 19.0595 16.9912 17.9005V8.98771L12.4461 13.0815L12.4419 13.0759H12.4405ZM14.9834 16.2501V17.5823C14.9834 17.8625 14.7573 18.0878 14.4793 18.0878H3.85852C3.21262 18.0878 2.69029 17.5626 2.69029 16.9162C2.69029 16.2698 3.21403 15.7445 3.85852 15.7445H14.4779C14.7573 15.7445 14.9819 15.9712 14.9819 16.2501H14.9834Z" fill="#949494"/>
    <path d="M16.2181 4.1614L10.7736 9.06602C10.5653 9.25364 10.5481 9.57506 10.7352 9.78395L12.3687 11.608C12.5558 11.8168 12.8763 11.8341 13.0845 11.6465L18.529 6.74185C18.7373 6.55423 18.7545 6.2328 18.5674 6.02392L16.9339 4.1999C16.7469 3.99102 16.4264 3.97378 16.2181 4.1614Z" fill="#949494"/>
    <path d="M18.5285 2.05913L17.4296 3.04908C17.2317 3.22735 17.2154 3.53275 17.3931 3.73121L19.0604 5.59295C19.2381 5.79142 19.5426 5.8078 19.7405 5.62953L20.8395 4.63958C21.0373 4.46131 21.0537 4.15591 20.8759 3.95745L19.2086 2.09571C19.0309 1.89724 18.7264 1.88086 18.5285 2.05913Z" fill="#949494"/>
    <path d="M9.50632 10.3183L9.10755 12.4757C9.05841 12.7447 9.27605 12.9883 9.54844 12.9672L11.729 12.801C12.073 12.7743 12.2373 12.3644 12.0071 12.1067L10.2252 10.1169C9.99495 9.85917 9.56951 9.97887 9.50772 10.3197L9.50632 10.3183Z" fill="#949494"/>
  </g>
  <defs>
    <clipPath id="clip0_916_521">
      <rect width="21" height="20" fill="white"/>
    </clipPath>
  </defs>
</svg>