<svg class="option-icon" xmlns="http://www.w3.org/2000/svg" width="17" height="20" viewBox="0 0 17 20">
  <g clip-path="url(#clip0_916_1311)">
    <path d="M14.904 0H3.99256C1.78696 0 0 1.7913 0 4.00225V15.9977C0 18.2073 1.78696 20 3.99256 20H14.9054C16.063 20 17 19.0593 17 17.9003V2.0997C17 0.939304 16.0616 0 14.9054 0H14.904ZM4.2356 3.09816H14.3378C14.5219 3.09816 14.6722 3.24884 14.6722 3.43332C14.6722 3.6178 14.5219 3.76848 14.3378 3.76848H4.2356C4.05157 3.76848 3.90125 3.6178 3.90125 3.43332C3.90125 3.24884 4.05157 3.09816 4.2356 3.09816ZM4.2356 6.20476H14.3378C14.5219 6.20476 14.6722 6.35544 14.6722 6.53992C14.6722 6.7244 14.5219 6.87509 14.3378 6.87509H4.2356C4.05157 6.87509 3.90125 6.7244 3.90125 6.53992C3.90125 6.35544 4.05157 6.20476 4.2356 6.20476ZM4.2356 9.30996H14.3378C14.5219 9.30996 14.6722 9.46064 14.6722 9.64512C14.6722 9.8296 14.5219 9.98028 14.3378 9.98028H4.2356C4.05157 9.98028 3.90125 9.8296 3.90125 9.64512C3.90125 9.46064 4.05157 9.30996 4.2356 9.30996ZM14.9911 17.582C14.9911 17.8623 14.7649 18.0876 14.4867 18.0876H3.86051C3.21428 18.0876 2.69168 17.5623 2.69168 16.9159C2.69168 16.2695 3.21568 15.7443 3.86051 15.7443H14.4853C14.7649 15.7443 14.9897 15.971 14.9897 16.2498V17.582H14.9911Z" fill="#949494"/>
  </g>
  <defs>
    <clipPath id="clip0_916_1311">
      <rect width="17" height="20" fill="white"/>
    </clipPath>
  </defs>
</svg>