<svg width="24" height="16" viewBox="0 0 24 16" fill="none" xmlns="http://www.w3.org/2000/svg">
<path fill-rule="evenodd" clip-rule="evenodd" d="M9.36074 15.2722C9.36971 15.2812 9.3788 15.2901 9.388 15.2989C9.7418 15.6378 10.1948 15.809 10.6489 15.8147C11.1457 15.8211 11.6437 15.6294 12.0145 15.2424C12.0236 15.2329 12.0326 15.2233 12.0414 15.2136L23.1479 3.61845C23.8574 2.87772 23.8321 1.70206 23.0914 0.992546C22.3506 0.283031 21.175 0.30834 20.4654 1.04907L10.6164 11.3315L3.91063 4.90831C3.16989 4.19879 1.99424 4.2241 1.28472 4.96483C0.575207 5.70557 0.600516 6.88123 1.34125 7.59074L9.36074 15.2722Z" fill="#BE9AEC"/>
</svg>
