<svg xmlns="http://www.w3.org/2000/svg" width="98" height="98" viewBox="0 0 98 98" fill="none">
  <g filter="url(#filter0_d_1001_1843)">
    <circle cx="49" cy="49" r="39" fill="white"/>
    <circle cx="49" cy="49" r="38.5" stroke="#CDCDCD"/>
  </g>
  <path d="M59.1977 30.3149H39.6123C31.783 30.3149 25.4375 36.6405 25.4375 44.4451V47.8149C25.4375 54.7916 30.5105 60.5821 37.179 61.732L36.0838 67.9341C35.7827 69.6383 37.774 70.7955 39.1121 69.6916L48.5223 61.9426H59.2002C67.0295 61.9426 73.375 55.6171 73.375 47.8124V44.4427C73.375 36.638 67.0295 30.3125 59.2002 30.3125L59.1977 30.3149ZM36.8293 49.2044C35.1756 49.2044 33.8351 47.8681 33.8351 46.2195C33.8351 44.571 35.1756 43.2347 36.8293 43.2347C38.4831 43.2347 39.8236 44.571 39.8236 46.2195C39.8236 47.8681 38.4831 49.2044 36.8293 49.2044ZM49.4062 49.2044C47.7525 49.2044 46.412 47.8681 46.412 46.2195C46.412 44.571 47.7525 43.2347 49.4062 43.2347C51.06 43.2347 52.4005 44.571 52.4005 46.2195C52.4005 47.8681 51.06 49.2044 49.4062 49.2044ZM61.9807 49.2044C60.327 49.2044 58.9865 47.8681 58.9865 46.2195C58.9865 44.571 60.327 43.2347 61.9807 43.2347C63.6345 43.2347 64.975 44.571 64.975 46.2195C64.975 47.8681 63.6345 49.2044 61.9807 49.2044Z" fill="#BE9AEC"/>
  <defs>
    <filter id="filter0_d_1001_1843" x="0" y="0" width="98" height="98" filterUnits="userSpaceOnUse" color-interpolation-filters="sRGB">
      <feFlood flood-opacity="0" result="BackgroundImageFix"/>
      <feColorMatrix in="SourceAlpha" type="matrix" values="0 0 0 0 0 0 0 0 0 0 0 0 0 0 0 0 0 0 127 0" result="hardAlpha"/>
      <feOffset/>
      <feGaussianBlur stdDeviation="5"/>
      <feComposite in2="hardAlpha" operator="out"/>
      <feColorMatrix type="matrix" values="0 0 0 0 0 0 0 0 0 0 0 0 0 0 0 0 0 0 0.1 0"/>
      <feBlend mode="normal" in2="BackgroundImageFix" result="effect1_dropShadow_1001_1843"/>
      <feBlend mode="normal" in="SourceGraphic" in2="effect1_dropShadow_1001_1843" result="shape"/>
    </filter>
  </defs>
</svg>