<svg xmlns="http://www.w3.org/2000/svg" width="42" height="40" viewBox="0 0 42 40" fill="none">
<g clip-path="url(#clip0_162_149)">
<path fill-rule="evenodd" clip-rule="evenodd" d="M24.1143 26.5486C24.4401 26.5232 24.7013 26.3683 24.881 26.1515H24.8838L24.8922 26.1627L33.9825 17.9751V35.8008C33.9825 38.1188 32.1094 40.0002 29.7954 40.0002H7.98101C3.57208 40.0002 0 36.4148 0 31.9957V8.00471C0 3.5828 3.57208 0.000208053 7.98101 0.0030229H29.7926C32.1038 0.0030229 33.9797 1.88163 33.9797 4.20243V5.39945L18.6551 19.2031L18.6635 19.2144C18.4305 19.3693 18.2479 19.6143 18.189 19.9354L17.1274 25.6839C16.9955 26.3993 17.5768 27.0499 18.3013 26.9936L24.1143 26.5486ZM28.9585 36.1754C29.5146 36.1754 29.9667 35.7248 29.9667 35.1643V32.4999H29.9639C29.9639 31.9422 29.5146 31.4887 28.9557 31.4887H7.71704C6.42806 31.4887 5.38058 32.5393 5.38058 33.8321C5.38058 35.1248 6.42525 36.1754 7.71704 36.1754H28.9585ZM21.5474 18.1321L32.4364 8.3228C32.853 7.94757 33.4939 7.98205 33.8681 8.39981L37.1351 12.0479C37.5092 12.4656 37.4749 13.1085 37.0583 13.4837L26.1693 23.293C25.7528 23.6682 25.1118 23.6337 24.7377 23.2159L21.4706 19.5679C21.0965 19.1501 21.1309 18.5073 21.5474 18.1321ZM37.0566 4.11828L34.8587 6.0982C34.4629 6.45472 34.4303 7.06552 34.7857 7.46246L38.1203 11.1859C38.4758 11.5829 39.0848 11.6156 39.4806 11.2591L41.6784 9.27919C42.0742 8.92266 42.1069 8.31186 41.7514 7.91493L38.4168 4.19145C38.0613 3.79452 37.4523 3.76176 37.0566 4.11828ZM18.2143 24.9514L19.0119 20.6366L19.0147 20.6394C19.1382 19.9578 19.9891 19.7184 20.4497 20.2338L24.0133 24.2135C24.4739 24.7289 24.1453 25.5485 23.4573 25.6021L19.0961 25.9344C18.5513 25.9766 18.116 25.4894 18.2143 24.9514Z" fill="#BE9AEC"/>
</g>
<defs>
<clipPath id="clip0_162_149">
<rect width="42" height="40" fill="white"/>
</clipPath>
</defs>
</svg>