<svg xmlns="http://www.w3.org/2000/svg" width="35" height="40" viewBox="0 0 35 40" fill="none">
<path d="M30.6847 0H8.21998C3.67903 0 0 3.58259 0 8.00451V31.9955C0 36.4146 3.67903 40 8.21998 40H30.6875C33.0708 40 35 38.1186 35 35.8006V4.19941C35 1.87861 33.0679 0 30.6875 0H30.6847ZM8.72035 6.19631H29.519C29.8979 6.19631 30.2074 6.49768 30.2074 6.86664C30.2074 7.2356 29.8979 7.53697 29.519 7.53697H8.72035C8.34146 7.53697 8.03198 7.2356 8.03198 6.86664C8.03198 6.49768 8.34146 6.19631 8.72035 6.19631ZM8.72035 12.4095H29.519C29.8979 12.4095 30.2074 12.7109 30.2074 13.0798C30.2074 13.4488 29.8979 13.7502 29.519 13.7502H8.72035C8.34146 13.7502 8.03198 13.4488 8.03198 13.0798C8.03198 12.7109 8.34146 12.4095 8.72035 12.4095ZM8.72035 18.6199H29.519C29.8979 18.6199 30.2074 18.9213 30.2074 19.2902C30.2074 19.6592 29.8979 19.9606 29.519 19.9606H8.72035C8.34146 19.9606 8.03198 19.6592 8.03198 19.2902C8.03198 18.9213 8.34146 18.6199 8.72035 18.6199ZM30.864 35.1641C30.864 35.7245 30.3983 36.1752 29.8256 36.1752H7.9481C6.61763 36.1752 5.54169 35.1246 5.54169 33.8319C5.54169 32.5391 6.62053 31.4885 7.9481 31.4885H29.8227C30.3983 31.4885 30.8611 31.942 30.8611 32.4996V35.1641H30.864Z" fill="#BE9AEC"/>
</svg>