<svg xmlns="http://www.w3.org/2000/svg" width="17" height="17" viewBox="0 0 17 17" fill="none">
  <path d="M3.975 1.06066C3.38922 0.474873 2.43947 0.474874 1.85368 1.06066L1.06066 1.85368C0.474873 2.43947 0.474874 3.38922 1.06066 3.975L1.48818 4.40252L4.12427 7.08304C4.70171 7.67021 4.69777 8.61313 4.11544 9.19546L1.48818 11.8227L1.09468 12.1998C0.49202 12.7774 0.476779 13.7358 1.06078 14.3322L1.8538 15.1421C2.43771 15.7385 3.39608 15.7435 3.98623 15.1534L4.40252 14.7371L7.07407 12.0655C7.66332 11.4763 8.61991 11.4803 9.20421 12.0744L11.8227 14.7371L12.1887 15.119C12.7706 15.7261 13.7377 15.7364 14.3324 15.1418L15.1418 14.3324C15.7364 13.7377 15.7261 12.7706 15.119 12.1887L14.7371 11.8227L12.0744 9.20421C11.4803 8.61991 11.4763 7.66332 12.0655 7.07406L14.7371 4.40252L15.1534 3.98623C15.7435 3.39608 15.7385 2.43771 15.1421 1.8538L14.3322 1.06078C13.7358 0.476779 12.7774 0.49202 12.1998 1.09468L11.8227 1.48818L9.19546 4.11544C8.61313 4.69777 7.67021 4.70171 7.08304 4.12427L4.40252 1.48818L3.975 1.06066Z" fill="#BE9AEC"/>
</svg>