<svg xmlns="http://www.w3.org/2000/svg" width="17" height="17" viewBox="0 0 17 17" fill="none">
<path d="M15.5363 7.00713H10.3465V1.49287C10.3465 0.671108 9.71384 0 8.94141 0C8.16798 0 7.53635 0.672162 7.53635 1.49287V7.00713H2.34646C1.57304 7.00713 0.941406 7.67929 0.941406 8.5C0.941406 9.32071 1.57403 9.99287 2.34646 9.99287H7.53635V15.5071C7.53635 16.3289 8.16897 17 8.94141 17C9.71483 17 10.3465 16.3278 10.3465 15.5071V9.99287H15.5363C16.3098 9.99287 16.9414 9.32071 16.9414 8.5C16.9414 7.67929 16.3088 7.00713 15.5363 7.00713Z" fill="#BE9AEC"/>
</svg>