<svg xmlns="http://www.w3.org/2000/svg" width="46" height="46" viewBox="0 0 46 46" fill="none">
  <g filter="url(#filter0_d_428_2259)">
    <path fill-rule="evenodd" clip-rule="evenodd" d="M36 23C36 30.1797 30.1797 36 23 36C15.8203 36 10 30.1797 10 23C10 15.8203 15.8203 10 23 10C30.1797 10 36 15.8203 36 23ZM32.5333 23C32.5333 28.2651 28.2651 32.5333 23 32.5333C17.7349 32.5333 13.4667 28.2651 13.4667 23C13.4667 17.7349 17.7349 13.4667 23 13.4667C28.2651 13.4667 32.5333 17.7349 32.5333 23ZM23 28.2C25.8719 28.2 28.2 25.8719 28.2 23C28.2 20.1281 25.8719 17.8 23 17.8C20.1281 17.8 17.8 20.1281 17.8 23C17.8 25.8719 20.1281 28.2 23 28.2Z" fill="#ED5757"/>
  </g>
  <defs>
    <filter id="filter0_d_428_2259" x="0" y="0" width="46" height="46" filterUnits="userSpaceOnUse" color-interpolation-filters="sRGB">
      <feFlood flood-opacity="0" result="BackgroundImageFix"/>
      <feColorMatrix in="SourceAlpha" type="matrix" values="0 0 0 0 0 0 0 0 0 0 0 0 0 0 0 0 0 0 127 0" result="hardAlpha"/>
      <feOffset/>
      <feGaussianBlur stdDeviation="5"/>
      <feComposite in2="hardAlpha" operator="out"/>
      <feColorMatrix type="matrix" values="0 0 0 0 1 0 0 0 0 0.43986 0 0 0 0 0.43986 0 0 0 0.2 0"/>
      <feBlend mode="normal" in2="BackgroundImageFix" result="effect1_dropShadow_428_2259"/>
      <feBlend mode="normal" in="SourceGraphic" in2="effect1_dropShadow_428_2259" result="shape"/>
    </filter>
  </defs>
</svg>