<svg xmlns="http://www.w3.org/2000/svg" width="51" height="34" viewBox="0 0 51 34" fill="none">
<path fill-rule="evenodd" clip-rule="evenodd" d="M46.806 22.2262H48.9161L48.9208 22.2238C50.0688 22.2238 51 23.1692 51 24.3347V27.0283C51 30.6891 48.0778 33.656 44.472 33.656H6.52802C2.92225 33.656 0 30.6891 0 27.0283V24.3347C0 23.1692 0.931213 22.2238 2.07915 22.2238H4.18927C4.12973 21.9868 4.094 21.7377 4.094 21.4814V3.1724C4.094 1.42178 5.59681 0 7.45209 0H43.5432C45.3984 0 46.9012 1.41936 46.9012 3.1724V21.4838C46.9012 21.7402 46.8655 21.9868 46.806 22.2262ZM9.20734 2.90401C8.25707 2.90401 7.48781 3.63182 7.48781 4.5289V20.4369C7.48781 21.3339 8.25707 22.0617 9.20734 22.0617H41.7879C42.7382 22.0617 43.5074 21.3339 43.5074 20.4369V4.5289C43.5074 3.63182 42.7382 2.90401 41.7879 2.90401H9.20734ZM44.3148 30.8366C46.2368 30.8366 47.7943 29.2553 47.7943 27.3039H47.7967V26.1288C47.7967 25.4348 47.2418 24.8715 46.5583 24.8715H4.43934C3.75581 24.8715 3.2009 25.4348 3.2009 26.1288V27.3039C3.2009 29.2553 4.75848 30.8366 6.68044 30.8366H44.3148ZM37.4083 8.12928H13.5898C12.8943 8.12928 12.3323 7.55864 12.3323 6.85259C12.3323 6.14653 12.8943 5.57589 13.5898 5.57589H37.4083C38.1038 5.57589 38.6658 6.14653 38.6658 6.85259C38.6658 7.55864 38.1038 8.12928 37.4083 8.12928ZM13.5898 13.7608H37.4083C38.1038 13.7608 38.6658 13.1901 38.6658 12.4841C38.6658 11.778 38.1038 11.2074 37.4083 11.2074H13.5898C12.8943 11.2074 12.3323 11.778 12.3323 12.4841C12.3323 13.1901 12.8943 13.7608 13.5898 13.7608ZM37.4083 19.3923H13.5898C12.8943 19.3923 12.3323 18.8216 12.3323 18.1156C12.3323 17.4095 12.8943 16.8389 13.5898 16.8389H37.4083C38.1038 16.8389 38.6658 17.4095 38.6658 18.1156C38.6658 18.8216 38.1038 19.3923 37.4083 19.3923Z" fill="#BE9AEC"/>
</svg>