<svg xmlns="http://www.w3.org/2000/svg" width="17" height="21" viewBox="0 0 17 21" fill="none">
  <g clip-path="url(#clip0_1001_1865)">
    <path d="M14.6997 16.6113V2.18224C14.6997 0.97638 13.7522 0 12.5819 0H2.11774C0.947518 0 0 0.97638 0 2.18224V16.6113C0 17.8171 0.947518 18.7935 2.11774 18.7935H12.5833C13.7535 18.7935 14.7011 17.8171 14.7011 16.6113H14.6997ZM2.63784 17.5264C1.95867 17.5264 1.40952 16.9591 1.40952 16.2606V2.53431C1.40952 1.83445 1.96005 1.26858 2.63784 1.26858H12.0632C12.7424 1.26858 13.2915 1.83588 13.2915 2.53431V16.2606C13.2915 16.9605 12.741 17.5264 12.0632 17.5264H2.63784Z" fill="#BE9AEC"/>
    <path d="M10.8289 3.18286H3.86987C3.58492 3.18286 3.35254 3.4209 3.35254 3.71595C3.35254 4.011 3.58354 4.24904 3.86987 4.24904H10.8289C11.1139 4.24904 11.3463 4.011 11.3463 3.71595C11.3463 3.4209 11.1153 3.18286 10.8289 3.18286Z" fill="#BE9AEC"/>
    <path d="M10.8289 5.96518H3.86987C3.58492 5.96518 3.35254 6.20322 3.35254 6.49827C3.35254 6.79332 3.58354 7.03136 3.86987 7.03136H10.8289C11.1139 7.03136 11.3463 6.79332 11.3463 6.49827C11.3463 6.20322 11.1153 5.96518 10.8289 5.96518Z" fill="#BE9AEC"/>
    <path d="M10.8276 8.74893H3.86987C3.58416 8.74893 3.35254 8.98728 3.35254 9.28131C3.35254 9.57533 3.58416 9.81368 3.86987 9.81368H10.8276C11.1133 9.81368 11.3449 9.57533 11.3449 9.28131C11.3449 8.98728 11.1133 8.74893 10.8276 8.74893Z" fill="#BE9AEC"/>
    <path d="M10.8289 11.5327H3.86987C3.58492 11.5327 3.35254 11.7707 3.35254 12.0658C3.35254 12.3608 3.58354 12.5989 3.86987 12.5989H10.8289C11.1139 12.5989 11.3463 12.3608 11.3463 12.0658C11.3463 11.7707 11.1153 11.5327 10.8289 11.5327Z" fill="#BE9AEC"/>
    <path d="M16.2955 4.69946C15.9069 4.69946 15.5915 5.02445 15.5915 5.42498V18.4657C15.5915 19.1656 15.041 19.7314 14.3632 19.7314H5.26007C4.9198 19.7314 4.64453 20.0151 4.64453 20.3657C4.64453 20.7164 4.9198 21 5.26007 21H14.8819C16.0521 21 16.9996 20.0236 16.9996 18.8178V5.42498C16.9996 5.02445 16.6842 4.69946 16.2955 4.69946Z" fill="#BE9AEC"/>
  </g>
  <defs>
    <clipPath id="clip0_1001_1865">
      <rect width="17" height="21" fill="white"/>
    </clipPath>
  </defs>
</svg>