<svg xmlns="http://www.w3.org/2000/svg" width="21" height="5" viewBox="0 0 21 5" fill="none">
<path fill-rule="evenodd" clip-rule="evenodd" d="M2.5 0C3.88074 0 5 1.11914 5 2.5C5 3.88086 3.88074 5 2.5 5C1.11926 5 0 3.88086 0 2.5C0 1.11914 1.11926 0 2.5 0ZM10.5 0C11.8807 0 13 1.11914 13 2.5C13 3.88086 11.8807 5 10.5 5C9.11926 5 8 3.88086 8 2.5C8 1.11914 9.11926 0 10.5 0ZM21 2.5C21 1.11914 19.8807 0 18.5 0C17.1193 0 16 1.11914 16 2.5C16 3.88086 17.1193 5 18.5 5C19.8807 5 21 3.88086 21 2.5Z" fill="#C86FFF"/>
</svg>