<svg xmlns="http://www.w3.org/2000/svg" width="19" height="16" viewBox="0 0 19 16" fill="none">
  <path d="M1.62975 9.68731L13.4342 9.68731L10.1064 13.1267C9.47289 13.7814 9.47289 14.8536 10.1064 15.5097C10.7399 16.1644 11.7774 16.1644 12.4121 15.5097L18.524 9.19162C18.7113 8.99811 18.8408 8.76882 18.9177 8.52363C18.9203 8.51435 18.9242 8.5064 18.9267 8.49712C18.937 8.46133 18.946 8.42422 18.9537 8.38844C18.9575 8.36988 18.9626 8.35133 18.9665 8.33277C18.9729 8.30096 18.9767 8.26915 18.9806 8.23867C18.9844 8.21481 18.9883 8.19228 18.9908 8.16842C18.9947 8.12336 18.9973 8.07697 18.9973 8.03191C18.9973 8.02263 18.9985 8.01335 18.9985 8.00408C18.9985 7.94708 18.996 7.89009 18.9896 7.83443C18.9896 7.83178 18.9896 7.82913 18.9896 7.8278C18.9742 7.6714 18.9383 7.51634 18.8806 7.36922C18.801 7.16644 18.6831 6.97691 18.524 6.81256L12.4121 0.495792C11.7786 -0.158947 10.7412 -0.158947 10.1064 0.495792C9.47161 1.15053 9.47289 2.22276 10.1064 2.87883L13.4381 6.32217L1.62846 6.32217C0.732065 6.32217 -0.00146484 7.08029 -0.00146484 8.00673C-0.00146484 8.93317 0.732065 9.69129 1.62846 9.69129L1.62975 9.68731Z" fill="#949494"/>
</svg>