<svg xmlns="http://www.w3.org/2000/svg" width="50" height="50" viewBox="0 0 50 50" fill="none">
  <rect x="0.5" y="0.5" width="49" height="49" rx="4.5" fill="white" stroke="#CDCDCD"/>
  <path d="M40.8895 21.5348L36.1516 17.4921V10.196C36.1516 9.40483 35.5163 8.76445 34.7313 8.76445H32.0034C31.2185 8.76445 30.5831 9.40483 30.5831 10.196V12.7398L25.5883 8.47885C25.1114 8.07085 24.4109 8.07085 23.9322 8.47885L8.62932 21.5348C7.71766 22.3118 8.26325 23.8125 9.4565 23.8125H11.3361C12.0437 23.8125 12.6174 24.3908 12.6174 25.104V39.5737C12.6174 40.2869 13.1911 40.8652 13.8987 40.8652H19.8649C20.5724 40.8652 21.1462 40.2869 21.1462 39.5737V31.4936C21.1462 30.7805 21.7199 30.2022 22.4274 30.2022H27.0913C27.7988 30.2022 28.3726 30.7805 28.3726 31.4936V39.5737C28.3726 40.2869 28.9463 40.8652 29.6538 40.8652H35.6201C36.3276 40.8652 36.9014 40.2869 36.9014 39.5737V25.104C36.9014 24.3908 37.4751 23.8125 38.1826 23.8125H40.0623C41.2555 23.8125 41.8011 22.3118 40.8895 21.5348Z" fill="#D9A8FF"/>
</svg>