<svg class="option-icon" xmlns="http://www.w3.org/2000/svg" width="17" height="20" viewBox="0 0 17 20" fill="none">
  <g clip-path="url(#clip0_916_1292)">
    <path d="M15.4013 0H3.38146C1.51442 0 0 1.5181 0 3.38966V16.6089C0 18.4819 1.51442 19.9986 3.38146 19.9986H15.4013C16.2835 19.9986 17 19.2818 17 18.396V1.60259C17 0.718209 16.2849 0 15.4013 0ZM2.21684 3.5333C2.21684 3.14463 2.53153 2.82918 2.91926 2.82918H4.94505C5.10239 2.82918 5.24709 2.88128 5.36509 2.97C5.41286 3.00662 5.41567 3.07844 5.37212 3.12069L5.08694 3.39389C5.05462 3.42487 5.00545 3.42909 4.96752 3.40656C4.92397 3.38121 4.8748 3.36713 4.82142 3.36713H3.04148C2.88133 3.36713 2.75068 3.4981 2.75068 3.65864V5.4429C2.75068 5.60344 2.88133 5.7344 3.04148 5.7344H4.82142C4.94224 5.7344 5.04619 5.65977 5.08974 5.55415L5.50698 5.14575C5.55896 5.09506 5.64747 5.13167 5.64747 5.2049V5.56541C5.64747 5.95409 5.33278 6.26954 4.94505 6.26954H2.91926C2.53153 6.26954 2.21684 5.95409 2.21684 5.56541V3.53471V3.5333ZM5.64887 10.7478C5.64887 11.1365 5.33419 11.4519 4.94645 11.4519H2.92067C2.53293 11.4519 2.21825 11.1365 2.21825 10.7478V8.71708C2.21825 8.3284 2.53293 8.01296 2.92067 8.01296H4.94645C5.10379 8.01296 5.24849 8.06506 5.3665 8.15378C5.41426 8.1904 5.41707 8.26222 5.37352 8.30446L5.08834 8.57766C5.05603 8.60865 5.00686 8.61287 4.96893 8.59034C4.92538 8.56499 4.87621 8.55091 4.82282 8.55091H3.04289C2.88274 8.55091 2.75209 8.68188 2.75209 8.84242V10.6267C2.75209 10.7872 2.88274 10.9182 3.04289 10.9182H4.82282C4.94364 10.9182 5.0476 10.8435 5.09115 10.7379L5.50839 10.3295C5.56037 10.2788 5.64887 10.3154 5.64887 10.3887V10.7492V10.7478ZM6.08718 8.99592L4.63036 10.4563C4.51095 10.576 4.31849 10.576 4.19907 10.4563L3.13842 9.39304C3.01901 9.27334 3.01901 9.08041 3.13842 8.96071C3.25783 8.84101 3.45029 8.84101 3.56971 8.96071L4.41542 9.80848L5.6573 8.56358C5.77671 8.44388 5.96918 8.44388 6.08859 8.56358C6.208 8.68328 6.208 8.87621 6.08859 8.99592H6.08718ZM6.08718 3.81355L4.63036 5.2739C4.51095 5.39361 4.31849 5.39361 4.19907 5.2739L3.13842 4.21067C3.01901 4.09097 3.01901 3.89804 3.13842 3.77834C3.25783 3.65864 3.45029 3.65864 3.56971 3.77834L4.41542 4.62611L5.6573 3.38121C5.77671 3.26151 5.96918 3.26151 6.08859 3.38121C6.208 3.50092 6.208 3.69385 6.08859 3.81355H6.08718ZM14.623 13.0038H8.15652C7.98794 13.0038 7.85167 12.8672 7.85167 12.6982C7.85167 12.5292 7.98794 12.3926 8.15652 12.3926H14.623C14.7916 12.3926 14.9279 12.5292 14.9279 12.6982C14.9279 12.8672 14.7916 13.0038 14.623 13.0038ZM14.623 10.6605H8.15652C7.98794 10.6605 7.85167 10.5239 7.85167 10.3549C7.85167 10.1859 7.98794 10.0493 8.15652 10.0493H14.623C14.7916 10.0493 14.9279 10.1859 14.9279 10.3549C14.9279 10.5239 14.7916 10.6605 14.623 10.6605ZM14.623 8.31714H8.15652C7.98794 8.31714 7.85167 8.18054 7.85167 8.01155C7.85167 7.84256 7.98794 7.70596 8.15652 7.70596H14.623C14.7916 7.70596 14.9279 7.84256 14.9279 8.01155C14.9279 8.18054 14.7916 8.31714 14.623 8.31714ZM14.623 5.97381H8.15652C7.98794 5.97381 7.85167 5.83721 7.85167 5.66822C7.85167 5.49923 7.98794 5.36263 8.15652 5.36263H14.623C14.7916 5.36263 14.9279 5.49923 14.9279 5.66822C14.9279 5.83721 14.7916 5.97381 14.623 5.97381ZM14.623 3.62907H8.15652C7.98794 3.62907 7.85167 3.49247 7.85167 3.32348C7.85167 3.15449 7.98794 3.01788 8.15652 3.01788H14.623C14.7916 3.01788 14.9279 3.15449 14.9279 3.32348C14.9279 3.49247 14.7916 3.62907 14.623 3.62907Z" fill="#949494"/>
  </g>
  <defs>
    <clipPath id="clip0_916_1292">
      <rect width="17" height="20" fill="white"/>
    </clipPath>
  </defs>
</svg>