<svg class="option-icon" xmlns="http://www.w3.org/2000/svg" width="20" height="20" viewBox="0 0 20 20" fill="none">
  <g clip-path="url(#clip0_916_1211)">
    <path fill-rule="evenodd" clip-rule="evenodd" d="M15.0022 4.18892C15.4506 6.90842 13.5747 9.47085 10.8122 9.91229C8.04981 10.3537 5.44691 8.507 4.99851 5.7875C4.5501 3.06801 6.42599 0.505571 9.18842 0.0641346C11.9508 -0.377301 14.5537 1.46943 15.0022 4.18892ZM14.0962 9.86455C17.0975 11.3093 19.3364 14.2921 19.971 17.8995C20.1635 18.989 19.3936 20 18.3756 20H1.625C0.607028 20 -0.16284 18.9904 0.0296272 17.8995C0.664166 14.2921 2.9031 11.3093 5.90437 9.86455C6.17804 9.7328 6.49982 9.76389 6.75544 9.92672C7.69071 10.5233 8.8034 10.8697 10.0003 10.8697C11.1972 10.8697 12.3114 10.5233 13.2452 9.92672C13.5008 9.76389 13.8226 9.7328 14.0962 9.86455Z" fill="#949494"/>
  </g>
  <defs>
    <clipPath id="clip0_916_1211">
      <rect width="20" height="20" fill="white"/>
    </clipPath>
  </defs>
</svg>