<svg xmlns="http://www.w3.org/2000/svg" width="21" height="24" viewBox="0 0 21 24" fill="none">
<path d="M19.3135 9.25312L12.1685 3.42012C11.482 2.85996 10.518 2.85996 9.83155 3.42012L2.68647 9.25312C2.25268 9.60778 2 10.1405 2 10.7038V22.1323C2 23.1628 2.83106 24 3.85492 24H6.98929C7.45667 24 7.83642 23.6042 7.83642 23.1171V17.8458C7.83642 17.3298 8.23807 16.9112 8.7332 16.9112H13.2668C13.7619 16.9112 14.1636 17.3298 14.1636 17.8458V23.1171C14.1636 23.6042 14.5433 24 15.0107 24H18.1451C19.1689 24 20 23.1643 20 22.1323V10.7038C20 10.1405 19.7473 9.60778 19.3135 9.25312ZM11.2541 13.2565C9.67381 13.4193 8.35784 12.0478 8.51412 10.4008C8.6295 9.1831 9.57595 8.19672 10.7444 8.07647C12.3247 7.9136 13.6407 9.28508 13.4844 10.9321C13.369 12.1498 12.4226 13.1362 11.2541 13.2565Z" fill="#BE9AEC"/>
</svg>