<svg xmlns="http://www.w3.org/2000/svg" width="53" height="28" viewBox="0 0 53 28" fill="none">
<g clip-path="url(#clip0_253_2884)">
<path d="M27.5544 13.8764C31.3773 13.2584 33.9733 9.67099 33.3528 5.8637C32.7322 2.05641 29.1301 -0.52901 25.3072 0.0890009C21.4843 0.707011 18.8883 4.29443 19.5088 8.10172C20.1294 11.909 23.7315 14.4944 27.5544 13.8764Z" fill="#BE9AEC"/>
<path d="M32.0994 13.8083C31.7207 13.6239 31.2754 13.6674 30.9216 13.8954C29.6294 14.7306 28.0875 15.2155 26.4311 15.2155C24.7747 15.2155 23.2349 14.7306 21.9406 13.8954C21.5868 13.6674 21.1415 13.6239 20.7628 13.8083C16.6094 15.831 13.5109 20.0089 12.6328 25.0573C12.3664 26.5846 13.4319 27.998 14.8406 27.998H38.0216C39.4304 27.998 40.4958 26.5825 40.2294 25.0573C39.3513 20.0069 36.2529 15.831 32.0994 13.8083Z" fill="#BE9AEC"/>
<path d="M42.5749 17.4288C45.4928 17.4288 47.8582 15.0731 47.8582 12.1671C47.8582 9.26106 45.4928 6.90527 42.5749 6.90527C39.6569 6.90527 37.2915 9.26106 37.2915 12.1671C37.2915 15.0731 39.6569 17.4288 42.5749 17.4288Z" fill="#BE9AEC"/>
<path d="M52.9687 25.7851C52.307 21.9864 49.9805 18.8447 46.8571 17.3173C46.5679 17.1764 46.2266 17.2013 45.9561 17.3774C44.9823 18.0074 43.8211 18.3722 42.5726 18.3722C41.3241 18.3722 40.1505 18.0012 39.1725 17.365C38.9103 17.195 38.5794 17.1743 38.2985 17.3132C38.2964 17.3132 38.2922 17.3152 38.2902 17.3173C38.0842 17.4189 38.0405 17.6924 38.2028 17.8561C40.5438 20.2228 42.2418 25.7581 40.9225 27.3497C40.6832 27.6378 40.8538 28.0025 41.3657 28.0025H51.3061C52.3673 28.0025 53.1705 26.9373 52.9687 25.7871V25.7851Z" fill="#BE9AEC"/>
<path d="M10.425 17.4288C13.3429 17.4288 15.7083 15.0731 15.7083 12.1671C15.7083 9.26106 13.3429 6.90527 10.425 6.90527C7.50704 6.90527 5.1416 9.26106 5.1416 12.1671C5.1416 15.0731 7.50704 17.4288 10.425 17.4288Z" fill="#BE9AEC"/>
<path d="M0.0312043 25.7851C0.692924 21.9864 3.01935 18.8447 6.14275 17.3173C6.43199 17.1764 6.77325 17.2013 7.04377 17.3774C8.01762 18.0074 9.17875 18.3722 10.4273 18.3722C11.6758 18.3722 12.8494 18.0012 13.8274 17.365C14.0896 17.195 14.4205 17.1743 14.7014 17.3132C14.7035 17.3132 14.7076 17.3152 14.7097 17.3173C14.9157 17.4189 14.9594 17.6924 14.7971 17.8561C12.4561 20.2228 10.7581 25.7581 12.0774 27.3497C12.3167 27.6378 12.1461 28.0025 11.6342 28.0025H1.69383C0.632578 28.0025 -0.170641 26.9373 0.0312043 25.7871V25.7851Z" fill="#BE9AEC"/>
</g>
<defs>
<clipPath id="clip0_253_2884">
<rect width="53" height="28" fill="white"/>
</clipPath>
</defs>
</svg>