<svg xmlns="http://www.w3.org/2000/svg" width="43" height="42" viewBox="0 0 43 42" fill="none">
<path d="M42.4083 17.1662L36.267 11.9725V2.59915C36.267 1.58273 35.4434 0.760032 34.426 0.760032H30.8899C29.8724 0.760032 29.0489 1.58273 29.0489 2.59915V5.86717L22.5745 0.39312C21.9563 -0.13104 21.0483 -0.13104 20.4278 0.39312L0.591691 17.1662C-0.590033 18.1644 0.117177 20.0924 1.66391 20.0924H4.10036C5.01745 20.0924 5.76116 20.8353 5.76116 21.7515V40.3409C5.76116 41.2571 6.50488 42 7.42197 42H15.1556C16.0727 42 16.8164 41.2571 16.8164 40.3409V29.9603C16.8164 29.0441 17.5602 28.3012 18.4772 28.3012H24.5228C25.4398 28.3012 26.1836 29.0441 26.1836 29.9603V40.3409C26.1836 41.2571 26.9273 42 27.8444 42H35.578C36.4951 42 37.2388 41.2571 37.2388 40.3409V21.7515C37.2388 20.8353 37.9825 20.0924 38.8996 20.0924H41.3361C42.8828 20.0924 43.59 18.1644 42.4083 17.1662Z" fill="#D9A8FF"/>
</svg>