<svg xmlns="http://www.w3.org/2000/svg" width="41" height="40" viewBox="0 0 41 40" fill="none">
<path d="M30.4741 8.38024C31.3849 13.8194 27.5744 18.9444 21.963 19.8273C16.3517 20.7102 11.0644 17.0167 10.1535 11.5775C9.24268 6.13835 13.0532 1.01331 18.6646 0.130409C24.2759 -0.75249 29.5632 2.94108 30.4741 8.38024Z" fill="#BE9AEC"/>
<path d="M28.6339 19.7318C34.7304 22.6213 39.2784 28.587 40.5673 35.8021C40.9583 37.9812 39.3944 40.0033 37.3266 40.0033H3.30087C1.23306 40.0033 -0.330778 37.9841 0.0601822 35.8021C1.34913 28.587 5.89709 22.6213 11.9936 19.7318C12.5495 19.4683 13.2032 19.5304 13.7224 19.8561C15.6222 21.0492 17.8825 21.742 20.3137 21.742C22.745 21.742 25.0083 21.0492 26.9051 19.8561C27.4243 19.5304 28.078 19.4683 28.6339 19.7318Z" fill="#BE9AEC"/>
</svg>