<svg xmlns="http://www.w3.org/2000/svg" width="15" height="17" viewBox="0 0 15 17" fill="none">
  <path d="M14.4279 5.06205L8.47371 0.340099C7.90166 -0.113366 7.09834 -0.113366 6.52629 0.340099L0.572055 5.06205C0.210565 5.34916 0 5.78044 0 6.23637V15.488C0 16.3223 0.692551 17 1.54576 17H4.15774C4.54722 17 4.86368 16.6796 4.86368 16.2853V12.018C4.86368 11.6003 5.19839 11.2615 5.611 11.2615H9.389C9.80161 11.2615 10.1363 11.6003 10.1363 12.018V16.2853C10.1363 16.6796 10.4528 17 10.8423 17H13.4542C14.3074 17 15 16.3235 15 15.488V6.23637C15 5.78044 14.7894 5.34916 14.4279 5.06205ZM7.71178 8.30284C6.39484 8.43469 5.2982 7.32444 5.42843 5.99116C5.52459 5.00536 6.31329 4.20687 7.287 4.10952C8.60394 3.97767 9.70058 5.08792 9.57035 6.42121C9.4742 7.407 8.68549 8.20549 7.71178 8.30284Z" fill="#949494"/>
</svg>