<svg class="option-icon" xmlns="http://www.w3.org/2000/svg" width="20" height="20" viewBox="0 0 20 20" fill="none">
  <g clip-path="url(#clip0_916_1254)">
    <path fill-rule="evenodd" clip-rule="evenodd" d="M9.10764 0H10.8945C11.3749 0 11.7644 0.389474 11.7644 0.869915V1.76373C12.3389 1.88617 12.8916 2.06718 13.4162 2.30023L13.9415 1.57717C14.2239 1.18848 14.7679 1.10232 15.1566 1.38471L16.6022 2.43498C16.9909 2.71738 17.077 3.26139 16.7946 3.65008L16.2678 4.37517C16.654 4.80523 16.9966 5.27525 17.2886 5.77828L18.1397 5.50174C18.5966 5.35328 19.0874 5.60334 19.2359 6.06026L19.788 7.75963C19.9365 8.21656 19.6864 8.70732 19.2295 8.85579L18.3775 9.13261C18.4067 9.41776 18.4217 9.70712 18.4217 9.99997C18.4217 10.293 18.4067 10.5826 18.3775 10.8679L19.2294 11.1447C19.6863 11.2932 19.9363 11.7839 19.7879 12.2409L19.2357 13.9402C19.0872 14.3972 18.5965 14.6472 18.1396 14.4988L17.2881 14.2221C16.996 14.7252 16.6532 15.1953 16.2669 15.6253L16.7936 16.3503C17.0759 16.739 16.9898 17.283 16.6011 17.5654L15.1555 18.6157C14.7668 18.898 14.2228 18.8119 13.9404 18.4232L13.415 17.7C12.8908 17.9328 12.3384 18.1137 11.7644 18.2361V19.1314C11.7644 19.6119 11.3749 20.0013 10.8945 20.0013H9.10764C8.6272 20.0013 8.23772 19.6119 8.23772 19.1314V18.2364C7.66291 18.1139 7.10978 17.9328 6.58492 17.6996L6.05959 18.4226C5.77719 18.8113 5.23317 18.8975 4.84449 18.6151L3.39892 17.5648C3.01024 17.2824 2.92407 16.7384 3.20647 16.3497L3.7333 15.6246C3.34735 15.1949 3.00495 14.7252 2.71306 14.2227L1.86248 14.499C1.40555 14.6475 0.914782 14.3974 0.766318 13.9405L0.214161 12.2411C0.0656964 11.7842 0.315755 11.2935 0.772681 11.145L1.62341 10.8686C1.59414 10.583 1.57914 10.2932 1.57914 9.99997C1.57914 9.70709 1.59409 9.4177 1.62328 9.13252L0.77223 8.856C0.315303 8.70754 0.0652456 8.21677 0.21371 7.75984L0.765867 6.06048C0.914331 5.60355 1.4051 5.35349 1.86202 5.50196L2.71222 5.7782C3.00455 5.27463 3.34757 4.80413 3.73431 4.37368L3.20818 3.64953C2.92578 3.26084 3.01195 2.71682 3.40063 2.43443L4.8462 1.38416C5.23488 1.10176 5.7789 1.18793 6.0613 1.57661L6.58645 2.29942C7.11084 2.06659 7.66344 1.88576 8.23772 1.76346V0.869915C8.23772 0.389474 8.6272 0 9.10764 0ZM10.0004 15.6303C6.89126 15.6303 4.37012 13.1091 4.37012 9.99997C4.37012 6.89083 6.89126 4.36969 10.0004 4.36969C13.1095 4.36969 15.6307 6.89083 15.6307 9.99997C15.6307 13.1091 13.1095 15.6303 10.0004 15.6303ZM7.57995 9.99997C7.57995 10.5212 7.15742 10.9437 6.6362 10.9437C6.11498 10.9437 5.69245 10.5212 5.69245 9.99997C5.69245 9.47875 6.11498 9.05622 6.6362 9.05622C7.15742 9.05622 7.57995 9.47875 7.57995 9.99997ZM10.0004 10.9437C10.5216 10.9437 10.9442 10.5212 10.9442 9.99997C10.9442 9.47875 10.5216 9.05622 10.0004 9.05622C9.47919 9.05622 9.05666 9.47875 9.05666 9.99997C9.05666 10.5212 9.47919 10.9437 10.0004 10.9437ZM14.3097 9.99997C14.3097 10.5212 13.8872 10.9437 13.366 10.9437C12.8447 10.9437 12.4222 10.5212 12.4222 9.99997C12.4222 9.47875 12.8447 9.05622 13.366 9.05622C13.8872 9.05622 14.3097 9.47875 14.3097 9.99997Z" fill="white"/>
  </g>
  <defs>
    <clipPath id="clip0_916_1254">
      <rect width="20" height="20" fill="white"/>
    </clipPath>
  </defs>
</svg>