<svg xmlns="http://www.w3.org/2000/svg" width="218" height="152" viewBox="0 0 218 152" fill="none">
<path fill-rule="evenodd" clip-rule="evenodd" d="M182.005 10.7916C183.786 18.3199 179.114 25.8631 171.569 27.64C164.024 29.4168 156.465 24.7544 154.684 17.2261C152.903 9.69781 157.576 2.15452 165.121 0.377688C172.665 -1.39915 180.225 3.26332 182.005 10.7916ZM92.074 76.2611C92.074 84.4436 98.7299 91.085 106.93 91.085H160.929C169.129 91.085 175.785 84.4436 175.785 76.2611V53.3365H198.171C205.21 53.3365 210.923 47.6361 210.923 40.6128V25.2843C210.923 24.166 210.007 23.2523 208.886 23.2523H193.853C192.732 23.2523 191.816 24.166 191.816 25.2843V29.921C191.816 32.0946 191.816 33.1822 191.272 33.7264C190.728 34.2714 189.638 34.2714 187.456 34.2714H131.941C130.82 34.2714 129.904 35.1851 129.904 36.3033V51.3046C129.904 52.4228 130.82 53.3365 131.941 53.3365H156.678V67.274C156.678 69.9061 154.546 72.0335 151.908 72.0335H115.841C113.272 72.0335 111.181 69.947 111.181 67.3831V36.6034C111.181 35.4851 110.265 34.5714 109.144 34.5714H94.1104C92.9897 34.5714 92.074 35.4851 92.074 36.6034V76.2611ZM196.887 91.085C204.639 91.085 210.923 84.8145 210.923 77.0794C210.923 69.3443 204.639 63.0737 196.887 63.0737C189.135 63.0737 182.851 69.3443 182.851 77.0794C182.851 84.8145 189.135 91.085 196.887 91.085ZM167.51 101.951C143.705 101.954 123.795 118.509 118.657 140.708C113.532 118.506 93.6053 101.951 69.7973 101.951C43.0098 101.951 21.1289 122.911 19.7212 149.286C19.6392 150.759 20.8146 152 22.2769 152H215.023C216.499 152 217.661 150.759 217.579 149.286C216.171 122.914 194.294 101.954 167.51 101.951ZM25.8163 91.0851C24.6956 91.0851 23.7799 90.1714 23.7799 89.0531H23.7663V58.4234C23.7663 55.7777 21.6205 53.623 18.9555 53.623H2.719C1.5983 53.623 0.682612 52.7093 0.682612 51.591V38.6354C0.682612 36.3852 2.514 34.5578 4.76906 34.5578H28.0167C33.9209 34.5578 38.9914 38.0081 41.3968 42.9721C42.9821 38.0899 47.5743 34.5578 52.9864 34.5578H67.4461C75.6464 34.5578 82.3022 41.1992 82.3022 49.3817V89.0531C82.3022 90.1714 81.3865 91.0851 80.2658 91.0851H65.2321C64.1114 91.0851 63.1957 90.1714 63.1957 89.0531V58.7097C63.1957 55.9004 60.9133 53.623 58.0979 53.623H42.8865V89.0531C42.8865 90.1714 41.9708 91.0851 40.8501 91.0851H25.8163ZM12.2035 15.7654C6.96905 15.7381 3.56595 17.661 3.57962 20.7431C3.57962 23.9342 6.96905 25.748 12.2035 25.748C17.438 25.748 20.6361 23.9342 20.6361 20.7431C20.6361 17.5519 17.315 15.7381 12.2035 15.7654ZM12.2035 22.4614C9.27878 22.4614 7.8574 21.9704 7.8574 20.7567C7.8574 19.543 9.27878 19.1066 12.2035 19.1066C15.1283 19.1066 16.413 19.5566 16.3993 20.7567C16.3993 21.9704 15.0599 22.475 12.2035 22.4614ZM9.85398 15.2334L6.83357 12.8877C9.3893 10.7603 10.4827 8.91925 10.8107 5.82354H8.73329V2.46873H14.8698C14.8698 8.18282 13.8311 11.8513 9.85398 15.2334ZM20.3914 9.77842H23.4665V6.34178H20.3914V1.14591H16.0999V15.2607H20.3914V9.77842ZM2.71974 14.6197L0 11.9877V11.974C2.46007 10.1739 3.51243 8.55103 3.86777 5.82354H1.25737V2.46873H7.95422C7.92689 7.91007 6.95653 11.4422 2.71974 14.6197ZM46.7962 13.2424H37.6119V11.3195H33.3478V13.2424H24.2592V16.6245H46.7962V13.2424ZM35.4792 25.8298C29.9987 25.8298 26.746 24.3296 26.746 21.5749C26.7596 18.8337 30.0261 17.32 35.4792 17.32C40.9324 17.32 44.1305 18.8337 44.1305 21.5749C44.1168 24.3296 40.9597 25.8298 35.4792 25.8298ZM35.4792 22.7204C38.4723 22.7068 39.8253 22.4204 39.8253 21.5749C39.8253 20.7157 38.486 20.4293 35.4792 20.4293C32.3768 20.443 31.1058 20.7293 31.1331 21.5749C31.1058 22.434 32.3631 22.7204 35.4792 22.7204ZM24.9557 9.27383L26.2677 12.4377C30.9555 12.1923 33.9213 11.0194 35.4656 9.28747C37.01 11.0194 39.9758 12.2059 44.6909 12.4377L45.9756 9.27383C40.7001 9.01472 38.6911 7.76008 38.1034 6.58725H44.6909V3.25971H37.6114V1.33683H33.3472V3.25971H26.3224V6.58725H32.8552C32.2539 7.76008 30.2722 9.02836 24.9693 9.27383H24.9557ZM51.7017 20.8794C51.688 17.7837 55.0365 15.9563 60.2983 15.9563C65.6011 15.9426 68.9495 17.7837 68.9495 20.8794C68.9495 23.9751 65.5601 25.8298 60.2983 25.8298C55.0365 25.8298 51.7017 23.9887 51.7017 20.8794ZM55.8975 20.8794C55.8838 22.0659 57.3735 22.5295 60.2983 22.5295C63.3324 22.5295 64.7537 22.0931 64.7537 20.8794C64.7537 19.6657 63.346 19.1747 60.2983 19.1747C57.3735 19.1884 55.8975 19.6657 55.8975 20.8794ZM54.8323 14.6743C56.691 14.6743 58.3448 14.0197 59.5338 12.915H64.6316V15.4925H68.8957V1.14591H64.6316V4.21434H59.6021C58.3994 3.08243 56.7184 2.40055 54.8323 2.40055C51.0739 2.40055 48.1355 4.99167 48.1628 8.55105C48.1355 12.0559 51.0739 14.6879 54.8323 14.6743ZM61.3652 7.56915H64.6179V9.56022H61.3515C61.4198 9.23292 61.4472 8.89198 61.4472 8.55105C61.4472 8.21011 61.4198 7.88281 61.3652 7.56915ZM54.8323 6.02812C56.322 6.02812 57.3744 6.84637 57.4017 8.56469C57.3744 10.2012 56.3357 11.1149 54.8323 11.1013C53.2879 11.1013 52.1946 10.2148 52.2219 8.56469C52.1946 6.84637 53.2879 6.02812 54.8323 6.02812ZM84.8996 13.1332C84.4213 17.7972 81.8382 20.6202 78.4214 20.6202V20.6066C74.6083 20.6066 71.8612 17.1017 71.8612 11.6604C71.8612 6.21904 74.6083 2.79604 78.4214 2.79604C81.7152 2.7824 84.2436 5.42807 84.8313 9.72387H88.33V1.14591H92.5805V25.8706H88.33V13.1332H84.8996ZM80.8815 11.6604C80.8678 8.25103 79.9248 6.65544 78.4214 6.65544C76.9454 6.6418 75.9614 8.25103 75.9614 11.6604C75.9477 15.1243 76.9591 16.6926 78.4214 16.6926C79.9385 16.7062 80.8815 15.1243 80.8815 11.6604Z" fill="url(#paint0_linear_743_1273)"/>
<defs>
<linearGradient id="paint0_linear_743_1273" x1="-1.01192" y1="154.103" x2="218.712" y2="-0.447196" gradientUnits="userSpaceOnUse">
<stop stop-color="#CD3FFF"/>
<stop offset="1" stop-color="#FC5AFF"/>
</linearGradient>
</defs>
</svg>